HIERARCHY
ROOT Hips
{
	OFFSET	0.00	0.00	0.00
	CHANNELS 6 Xposition Yposition Zposition Zrotation Xrotation Yrotation
	JOINT LeftUpLeg
	{
		OFFSET	 0.126116	-0.014019	-0.065224
		CHANNELS 3 Zrotation Xrotation Yrotation
		JOINT LeftLeg
		{
			OFFSET	 0.000000	 0.000000	 0.569914
			CHANNELS 3 Zrotation Xrotation Yrotation
			JOINT LeftFoot
			{
				OFFSET	 0.000000	 0.000000	 0.544423
				CHANNELS 3 Zrotation Xrotation Yrotation
				JOINT LeftToeBase
				{
					OFFSET	 0.000000	 0.000000	 0.207117
					CHANNELS 3 Zrotation Xrotation Yrotation
					End Site
					{
						OFFSET	 0.000000	 0.000000	 0.207117
					}
				}
			}
		}
	}
	JOINT RightUpLeg
	{
		OFFSET	-0.124023	-0.008373	-0.065224
		CHANNELS 3 Zrotation Xrotation Yrotation
		JOINT RightLeg
		{
			OFFSET	 0.000000	 0.000000	 0.570047
			CHANNELS 3 Zrotation Xrotation Yrotation
			JOINT RightFoot
			{
				OFFSET	 0.000000	 0.000000	 0.544354
				CHANNELS 3 Zrotation Xrotation Yrotation
				JOINT RightToeBase
				{
					OFFSET	 0.000000	 0.000000	 0.207540
					CHANNELS 3 Zrotation Xrotation Yrotation
					End Site
					{
						OFFSET	 0.000000	 0.000000	 0.207540
					}
				}
			}
		}
	}
	JOINT Spine
	{
		OFFSET	 0.000184	-0.007763	 0.117403
		CHANNELS 3 Zrotation Xrotation Yrotation
		JOINT Spine1
		{
			OFFSET	 0.000000	 0.000000	 0.137269
			CHANNELS 3 Zrotation Xrotation Yrotation
			JOINT Spine2
			{
				OFFSET	 0.000000	 0.000000	 0.156879
				CHANNELS 3 Zrotation Xrotation Yrotation
				JOINT LeftShoulder
				{
					OFFSET	 0.080501	-0.002496	 0.160144
					CHANNELS 3 Zrotation Xrotation Yrotation
					JOINT LeftArm
					{
						OFFSET	 0.000000	 0.000000	 0.164363
						CHANNELS 3 Zrotation Xrotation Yrotation
						JOINT LeftForeArm
						{
							OFFSET	 0.000000	 0.000000	 0.364576
							CHANNELS 3 Zrotation Xrotation Yrotation
							JOINT LeftHand
							{
								OFFSET	 0.000000	 0.000000	 0.360812
								CHANNELS 3 Zrotation Xrotation Yrotation
								JOINT LeftHandIndex1
								{
									OFFSET	 0.000000	 0.000000	 0.086006
									CHANNELS 3 Zrotation Xrotation Yrotation
									JOINT LeftHandIndex2
									{
										OFFSET	 0.000000	 0.000000	 0.047236
										CHANNELS 3 Zrotation Xrotation Yrotation
										JOINT LeftHandIndex3
										{
											OFFSET	-0.004284	-0.000551	 0.038166
											CHANNELS 3 Zrotation Xrotation Yrotation
											End Site
											{
												OFFSET	-0.004284	-0.000551	 0.038166
											}
										}
									}
								}
							}
						}
					}
				}
				JOINT Neck
				{
					OFFSET	 0.000000	 0.000000	 0.176489
					CHANNELS 3 Zrotation Xrotation Yrotation
					JOINT Head
					{
						OFFSET	 0.000000	-0.001747	 0.077940
						CHANNELS 3 Zrotation Xrotation Yrotation
						End Site
						{
							OFFSET	 0.000000	-0.001747	 0.077940
						}
					}
				}
				JOINT RightShoulder
				{
					OFFSET	-0.080363	 0.000306	 0.159706
					CHANNELS 3 Zrotation Xrotation Yrotation
					JOINT RightArm
					{
						OFFSET	 0.000000	 0.000000	 0.164196
						CHANNELS 3 Zrotation Xrotation Yrotation
						JOINT RightForeArm
						{
							OFFSET	 0.000000	 0.000000	 0.365611
							CHANNELS 3 Zrotation Xrotation Yrotation
							JOINT RightHand
							{
								OFFSET	 0.000000	 0.000000	 0.360648
								CHANNELS 3 Zrotation Xrotation Yrotation
								JOINT RightHandIndex1
								{
									OFFSET	 0.000000	 0.000000	 0.069977
									CHANNELS 3 Zrotation Xrotation Yrotation
									JOINT RightHandIndex2
									{
										OFFSET	 0.000000	 0.000000	 0.052305
										CHANNELS 3 Zrotation Xrotation Yrotation
										JOINT RightHandIndex3
										{
											OFFSET	 0.009002	-0.000782	 0.042196
											CHANNELS 3 Zrotation Xrotation Yrotation
											End Site
											{
												OFFSET	 0.009002	-0.000782	 0.042196
											}
										}
									}
								}
							}
						}
					}
				}
			}
		}
	}
}
MOTION
Frames:    13
Frame Time: 0.03333334
-0.058192	-2.223467	 1.201637	 4.073125	-1.821397	-3.661289	 8.718361	-11.338310	-172.415900	 0.300579	-38.894950	-0.025436	 55.588830	 81.092150	-59.179650	-2.371371	 31.281930	-0.062402	-10.825470	-29.585140	-174.861900	 10.263090	-53.419740	 8.875222	 8.427661	 70.790860	-2.784174	 2.357843	 33.165310	 0.107069	-0.275219	 8.313159	 1.170000	 1.455475	 5.194309	 2.902023	-7.872139	-5.457185	-4.111727	-93.765230	 58.862970	 175.769400	 18.116210	 37.851370	-36.114720	-15.629950	 3.101151	-11.364080	-10.881230	-16.538110	-9.137076	-4.869478	 19.239940	-2.786435	-3.890901	 21.352710	 2.212277	-4.808240	 5.545738	 0.146954	-0.127139	-5.013955	 0.158030	-9.744781	 0.474555	 2.055905	 89.833320	 61.580430	-179.878200	-19.864340	 51.071430	 8.300018	 12.951350	 3.992797	 24.535440	 5.061383	-3.727776	 1.425021	 6.304708	 26.016130	-0.577914	 1.724862	 45.966720	-6.849412	 0.343943	 25.070260	 3.661707
-0.060289	-2.268140	 1.201308	 5.662715	-0.833328	-3.691496	 6.967476	-9.848935	-172.813900	 1.206285	-37.913230	 0.524511	 57.944240	 81.823600	-62.145920	-2.368595	 31.748130	-0.072945	-14.969040	-33.063440	-176.013100	 10.971530	-47.311740	 8.677324	 16.023860	 79.552470	-12.284640	 2.359002	 32.995810	 0.103118	-0.102811	 7.805320	 0.897746	 1.495619	 4.624351	 3.265656	-8.554654	-5.213690	-4.311162	-94.095840	 59.018670	 175.045300	 17.303290	 34.968920	-37.925750	-16.812200	 3.077858	-11.303070	-10.135820	-15.903210	-11.285720	-4.864613	 19.368850	-2.795789	-3.875312	 21.552230	 2.196440	-4.804883	 5.585276	 0.144642	-0.041458	-5.103137	 0.227714	-10.134020	 0.533531	 1.712268	 89.720180	 61.720910	 179.852000	-19.121020	 52.356010	 5.668485	 12.144080	 3.778004	 24.717450	 4.719464	-2.079321	 0.715281	 6.278381	 23.698470	-0.549572	 2.025129	 43.546490	-7.117168	 0.770979	 23.192340	 3.446132
-0.061791	-2.309388	 1.198795	 6.409678	 0.165453	-4.045066	 6.131321	-8.417088	-172.879200	 1.532313	-36.970950	 0.709483	 63.625890	 82.783770	-67.987200	-2.365781	 32.202430	-0.083297	-16.996770	-35.715550	-176.949500	 11.256790	-40.501450	 7.869724	 29.158350	 82.003330	-27.408400	 2.361148	 32.674830	 0.095690	 0.703413	 7.082494	 0.947770	 1.544172	 4.619394	 3.594521	-9.022264	-5.152301	-4.522509	-94.352390	 58.953940	 174.508000	 15.906340	 32.341290	-39.392710	-17.564800	 3.045359	-11.235740	-9.728511	-16.041410	-11.137930	-4.847785	 19.772450	-2.817237	-3.852893	 21.837440	 2.173659	-4.791927	 5.737792	 0.135698	-0.006852	-5.176809	 0.308734	-10.478490	 0.592587	 1.622015	 89.570240	 61.904850	 179.490100	-18.323780	 53.413680	 3.330088	 10.723710	 3.410270	 25.264030	 3.937328	-0.687544	-0.480603	 6.240688	 21.385260	-0.615224	 2.243024	 41.638200	-7.309022	 1.269513	 20.920870	 3.209376
-0.064074	-2.364757	 1.193060	 6.698284	 0.694474	-4.538410	 5.556942	-5.464809	-173.079900	 1.732023	-35.528760	 0.801632	 67.377430	 83.731640	-71.714870	-2.353987	 33.937840	-0.123584	-15.988100	-37.109790	-177.053900	 10.392020	-31.131270	 5.818341	 78.252060	 83.367830	-77.965420	 2.348113	 34.504480	 0.138636	 1.863446	 6.539886	 1.230125	 1.632916	 5.278395	 3.696859	-9.374231	-5.221516	-4.628830	-94.502400	 58.867770	 174.202500	 13.508080	 29.714410	-41.094070	-18.268320	 2.990385	-11.126850	-9.937972	-15.780790	-10.421570	-4.827484	 20.316250	-2.861819	-3.814005	 22.327050	 2.134157	-4.760761	 6.103468	 0.114095	 0.042702	-5.311330	 0.347704	-10.748680	 0.659235	 1.464209	 89.417760	 62.028840	 179.119200	-16.766330	 54.449860	 0.333808	 8.581422	 2.793977	 25.696900	 3.147770	 0.406694	-2.696412	 6.184893	 18.291520	-0.715165	 2.629127	 37.902120	-7.642996	 1.931080	 17.778440	 2.921651
-0.069012	-2.428224	 1.183897	 7.098216	 0.644364	-4.609035	 4.576478	-1.398384	-173.969000	 2.221312	-33.804960	 1.039880	 52.152970	 83.828000	-56.483280	-2.309938	 38.916130	-0.246944	-15.246480	-38.381290	-177.484400	 10.197180	-23.374050	 4.391381	 41.179730	 80.152840	-41.470740	 2.337186	 35.858190	 0.171373	 2.602999	 6.729778	 1.208484	 1.688116	 5.495463	 3.776076	-9.613697	-5.175319	-4.736514	-94.531300	 59.078940	 174.106200	 10.981810	 28.153220	-42.590080	-18.114270	 2.910103	-10.987260	-10.453940	-16.210880	-11.164950	-4.863350	 20.557770	-3.141383	-3.775238	 22.808950	 2.094791	-4.708677	 6.710181	 0.077777	 0.147981	-5.445855	 0.310067	-10.804200	 0.895330	 1.134235	 89.356970	 61.791730	 178.981300	-14.861620	 54.913420	-3.100950	 6.741866	 2.216208	 25.609020	 2.919641	 0.612686	-4.548079	 6.175874	 15.054190	-0.546742	 2.952219	 34.381470	-7.915451	 2.580888	 14.557280	 2.670547
-0.077825	-2.497686	 1.170189	 7.541172	 0.151592	-3.582674	 3.945529	 3.256304	-176.385500	 1.753307	-32.430470	 0.751210	 20.373790	 80.123270	-23.231680	-2.138570	 49.927750	-0.582920	-12.646790	-41.636050	-177.944800	 6.352598	-22.147670	 2.692496	 6.826774	 69.210390	-2.033971	 2.340726	 35.435170	 0.161047	 3.257762	 6.851536	 0.211688	 1.790150	 6.437637	 3.790285	-9.845064	-5.158837	-4.965611	-94.446510	 59.371970	 174.239100	 9.046546	 26.952920	-44.338110	-18.168640	 2.806081	-10.800880	-10.992470	-15.913110	-11.421730	-4.894841	 20.731880	-3.380192	-3.752188	 23.092520	 2.071395	-4.629126	 7.626777	 0.021757	 0.270128	-5.472954	 0.240231	-10.729250	 1.232113	 1.367736	 89.348340	 61.402660	 178.975000	-13.325430	 54.885460	-6.339886	 5.053468	 1.596861	 26.229720	 2.416551	 0.695454	-5.678515	 6.281360	 11.748780	 0.084181	 3.147027	 32.063880	-8.076035	 3.162750	 11.569520	 2.474017
-0.088049	-2.585384	 1.157900	 9.401719	-1.060268	-2.225064	 3.901979	 10.608130	 179.872500	 0.298754	-27.577240	-0.024984	 4.329963	 63.079930	-2.806329	-1.588655	 64.426940	-1.333174	-9.939131	-41.358220	-177.670400	 6.909617	-21.947250	 2.880563	-5.424036	 52.990170	 13.917780	 2.339996	 35.523290	 0.163193	 3.162844	 7.278036	-0.964850	 1.287638	 7.430245	 3.262825	-10.214810	-4.981699	-5.022166	-94.326940	 59.146450	 174.532300	 8.378492	 25.255680	-45.657650	-18.057800	 2.671832	-10.558980	-10.324740	-13.024980	-10.632350	-4.862307	 21.089350	-3.308762	-3.708490	 23.624400	 2.027040	-4.537776	 8.664071	-0.043352	 0.391758	-5.370022	 0.271276	-10.754590	 1.866105	 1.814388	 89.119870	 61.183300	 178.447100	-12.193290	 54.574910	-7.601106	 4.909936	 1.462124	 25.335530	 2.439121	 1.168207	-4.350719	 6.355937	 9.153563	 0.445012	 3.356559	 29.392620	-8.245166	 3.548969	 9.538084	 2.359126
-0.097979	-2.667470	 1.150260	 10.398150	-1.630596	-0.856846	 8.648760	 14.551270	 174.197200	 1.549149	-27.530650	 0.553084	-0.477445	 43.597270	 8.459222	-1.237785	 68.944020	-1.743844	-12.792640	-38.452090	 178.830600	 6.632944	-23.054300	 2.907948	-4.918289	 47.451230	 14.794860	 2.362318	 32.495680	 0.091562	 3.530152	 7.375745	-1.753034	 0.405785	 7.056142	 2.144109	-10.420880	-4.341598	-4.659223	-94.142890	 59.740340	 174.837800	 8.814271	 25.309110	-45.573700	-16.507190	 2.520629	-10.299830	-8.960031	-10.560710	-10.788090	-4.784157	 21.372980	-2.935129	-3.642661	 24.411280	 1.960244	-4.481514	 9.294799	-0.083855	 0.365590	-5.360192	 0.193595	-10.883760	 2.391333	 1.958281	 88.999110	 60.434480	 178.209700	-11.532360	 53.800970	-8.802294	 5.805798	 1.534829	 25.621520	 3.494128	 1.213849	-2.647554	 6.390583	 8.793686	 0.586915	 3.387379	 28.983320	-8.269692	 3.670538	 8.891430	 2.325612
-0.109824	-2.771780	 1.146275	 8.571589	-2.393559	 0.580697	 18.262370	 14.397300	 166.373300	-0.593000	-33.249580	-0.518558	 4.306036	 34.960470	 9.006906	-2.375220	 30.598960	-0.047101	-12.901070	-35.854740	 175.495200	 5.384711	-28.502980	 2.939996	-3.848603	 51.148710	 15.385530	 2.374329	 30.484080	 0.046002	 6.425870	 7.978927	-2.776114	-0.106813	 5.268964	 1.816489	-10.115080	-3.103797	-4.603292	-94.029410	 59.690490	 175.092400	 9.501775	 26.333860	-43.674590	-14.509810	 2.315632	-9.933835	-8.157681	-9.163679	-9.789408	-4.717538	 22.102560	-2.762858	-3.562803	 25.343730	 1.879253	-4.403857	 10.155220	-0.140253	 0.244514	-5.397227	 0.161427	-11.060460	 2.569613	 2.176283	 89.151130	 60.284630	 178.564200	-11.657610	 53.608700	-8.778831	 6.791152	 1.657474	 24.199830	 4.742436	 0.810923	-0.844651	 6.403690	 10.684000	 0.630267	 3.238439	 30.922080	-8.150298	 3.498922	 9.803306	 2.373294
-0.122987	-2.895934	 1.150929	 6.184536	-3.290224	 1.360000	 19.331400	 8.713695	 163.460500	-4.332600	-49.625180	-3.572723	 6.360656	 51.372990	 4.738611	-2.380928	 29.501770	-0.022836	-12.401910	-34.844160	 173.937600	 5.149332	-40.357780	 3.833179	-3.991468	 63.094370	 15.974100	 2.374317	 30.486810	 0.046058	 10.706760	 8.698739	-3.315007	-0.018710	 2.521887	 1.925668	-9.543859	-1.529261	-4.250904	-93.876170	 59.507010	 175.450500	 11.386180	 28.754430	-40.145120	-11.901350	 2.031641	-9.389514	-8.258898	-8.176257	-8.515510	-4.599920	 23.684730	-2.526165	-3.462829	 26.477560	 1.777921	-4.244061	 11.888560	-0.258003	 0.071539	-5.248813	 0.009053	-11.129800	 2.456803	 1.979611	 89.503270	 60.075740	 179.369700	-13.241890	 53.610320	-6.065177	 8.805596	 1.921825	 20.777800	 6.261586	-0.816183	 0.336487	 6.373576	 14.473450	 0.459422	 2.944777	 34.466910	-7.909258	 2.983959	 12.497280	 2.531461
-0.128357	-2.976999	 1.159229	 5.056499	-3.755085	 1.173392	 14.597740	 3.423679	 166.753900	-3.450145	-61.404190	-3.340106	 4.110484	 63.495340	 4.446537	-2.378215	 30.036650	-0.034620	-11.904950	-32.161810	 174.073200	 4.091412	-44.376700	 3.395637	-4.175271	 69.144520	 16.783300	 2.374306	 30.488600	 0.046095	 13.502190	 9.060841	-3.122125	 0.178718	 2.020701	 1.958555	-9.279314	-1.133112	-3.985394	-93.761200	 59.773120	 175.665400	 13.036740	 31.073840	-38.379610	-9.292155	 1.825414	-8.985473	-8.105999	-5.668478	-6.643434	-4.583975	 24.132500	-2.575399	-3.408010	 27.084150	 1.722381	-4.158791	 12.793120	-0.321740	-0.059715	-5.099904	-0.053602	-11.198960	 2.354807	 1.834414	 89.573440	 59.748970	 179.533200	-15.006760	 52.625240	-2.373630	 10.217550	 2.076773	 22.358170	 6.754492	-1.785071	 1.055699	 6.375157	 16.630040	 0.436129	 2.761644	 36.504590	-7.755596	 2.597635	 14.472630	 2.664506
-0.133280	-3.087420	 1.175942	 3.401427	-3.804708	 0.980530	 11.153150	-8.417650	 171.405700	-1.568671	-74.396900	-1.850634	-6.120739	 78.262950	 13.128530	-2.370449	 31.438750	-0.065940	-11.400130	-26.781390	 174.406200	 2.083630	-45.874890	 2.040543	-5.628606	 75.939980	 19.060110	 2.373015	 30.723450	 0.051340	 17.556710	 9.087193	-3.145498	 0.729897	 2.318967	 2.436749	-8.945065	-1.374494	-4.080058	-93.575780	 60.176930	 176.021500	 15.760120	 35.153600	-35.802920	-5.105170	 1.519409	-8.345528	-6.609824	-2.997680	-3.811603	-4.541436	 25.129170	-2.645510	-3.350540	 27.708740	 1.664175	-4.104304	 13.363780	-0.362787	-0.272126	-4.855204	-0.132879	-11.279360	 1.936124	 2.216606	 89.757520	 59.902750	 179.944700	-17.407750	 50.025550	 6.678220	 12.201000	 2.247629	 21.030090	 6.628541	-0.669327	 1.770754	 6.378458	 18.964980	 0.413721	 2.540978	 38.797840	-7.567490	 2.162642	 16.645330	 2.828470
-0.134689	-3.210502	 1.196474	 1.665771	-3.355975	 0.654776	 13.924640	-19.583650	 175.091900	-7.381388	-71.576760	-7.342158	 6.821367	 83.497330	-1.719200	-2.383960	 28.865870	-0.008950	-9.829351	-19.853560	 175.459200	 0.029335	-43.575810	 0.542693	-6.356485	 80.713190	 20.272920	 2.368490	 31.507600	 0.068995	 21.426920	 8.763221	-3.057896	 1.687025	 2.352963	 2.812307	-8.484857	-1.581975	-4.129205	-93.243950	 60.296830	 176.742600	 18.739150	 40.223130	-32.088190	-2.094783	 1.198571	-7.578956	-5.254927	-0.558788	-0.910212	-4.513210	 25.734320	-2.676316	-3.300231	 28.246400	 1.613234	-4.066074	 13.760710	-0.391723	-0.419622	-4.775147	-0.195691	-11.213470	 1.660191	 2.385271	 90.077760	 60.341960	-179.325900	-19.024930	 45.991240	 16.786990	 13.565420	 2.057503	 17.704720	 5.391575	 0.342444	 2.822169	 6.377649	 20.093420	 0.384649	 2.426378	 39.923620	-7.468649	 1.957818	 17.648480	 2.910687
